<?xml version="1.0" standalone="no"?>
<!DOCTYPE svg PUBLIC "-//W3C//DTD SVG 20010904//EN"
 "http://www.w3.org/TR/2001/REC-SVG-20010904/DTD/svg10.dtd">
<svg version="1.0" xmlns="http://www.w3.org/2000/svg"
 width="400.000000pt" height="200.000000pt" viewBox="0 0 400.000000 200.000000"
 preserveAspectRatio="xMidYMid meet">

<g transform="translate(0.000000,200.000000) scale(0.100000,-0.100000)"
fill="#000000" stroke="none">
<path d="M801 1833 c-16 -14 -46 -109 -132 -419 l-112 -402 -46 29 c-120 77
-248 63 -348 -36 -212 -213 28 -566 303 -446 62 27 116 81 142 141 11 25 68
221 128 437 l107 392 31 -24 c17 -13 51 -31 76 -41 86 -33 126 -92 115 -167
-13 -86 69 -130 118 -65 16 22 21 42 20 93 -1 118 -76 224 -183 260 -83 27
-126 93 -114 172 5 38 3 48 -17 69 -27 28 -59 31 -88 7z"/>
<path d="M1512 1194 l3 -559 250 1 c202 0 261 3 305 17 75 22 143 69 179 124
l30 45 3 -93 3 -94 135 -3 c324 -7 463 36 601 186 52 56 116 162 121 201 1 9
5 -74 8 -184 l5 -200 315 0 315 0 3 113 3 112 -196 0 -195 0 0 445 0 445 -125
0 -125 0 0 -202 0 -203 -24 58 c-44 107 -114 190 -220 259 -106 69 -161 80
-408 86 l-218 4 0 -343 -1 -344 -20 38 c-24 46 -83 90 -143 107 l-45 12 49 48
c61 60 86 131 77 227 -8 77 -34 130 -87 175 -71 61 -116 71 -373 76 l-227 4 2
-558z m360 346 c49 -14 78 -52 78 -102 0 -81 -42 -118 -136 -121 l-49 -2 -2
105 c-1 58 0 111 2 118 5 15 57 16 107 2z m809 -36 c74 -22 157 -105 189 -189
28 -76 25 -195 -7 -267 -47 -105 -146 -175 -265 -186 l-58 -5 0 332 0 331 43
0 c24 0 68 -7 98 -16z m-726 -428 c51 -22 77 -69 72 -130 -3 -38 -11 -55 -31
-73 -36 -30 -94 -45 -169 -41 l-62 3 -2 128 -1 127 79 0 c47 0 94 -6 114 -14z"/>
<path d="M849 1024 c-12 -15 14 -137 108 -505 4 -13 -6 -17 -50 -21 -96 -8
-159 -75 -159 -168 0 -98 70 -170 167 -170 57 0 118 32 145 75 37 61 35 86
-30 345 -33 135 -63 252 -66 261 -4 13 7 17 57 22 75 7 101 -4 126 -52 20 -39
45 -50 68 -31 33 28 9 95 -50 142 -24 19 -45 24 -119 28 l-90 5 -29 43 c-30
44 -55 53 -78 26z"/>
<path d="M2830 520 c0 -11 -7 -20 -15 -20 -8 0 -15 -7 -15 -15 0 -8 7 -15 15
-15 12 0 15 -14 15 -64 0 -67 13 -91 46 -84 25 5 28 25 4 31 -17 4 -20 13 -20
60 0 48 3 56 20 59 29 4 30 22 3 26 -15 2 -23 10 -23 23 0 10 -7 19 -15 19 -8
0 -15 -9 -15 -20z"/>
<path d="M1590 480 c-58 -58 -23 -160 54 -160 19 0 38 4 41 10 3 6 10 10 16
10 15 0 10 -19 -12 -41 -17 -17 -28 -19 -65 -13 -49 7 -59 -6 -19 -24 50 -23
105 -7 124 35 15 32 15 190 0 199 -6 3 -15 0 -20 -7 -6 -11 -11 -11 -21 -1
-19 19 -75 15 -98 -8z m110 -42 c13 -25 13 -31 0 -55 -21 -38 -71 -44 -94 -11
-9 12 -16 29 -16 38 0 9 7 26 16 38 23 33 73 27 94 -10z"/>
<path d="M2025 475 c-19 -18 -25 -35 -25 -65 0 -55 34 -90 88 -90 26 0 45 7
56 19 19 21 9 35 -14 20 -24 -15 -66 -10 -83 9 -10 10 -17 21 -17 25 0 3 30 7
68 9 65 3 67 4 64 28 -7 66 -90 93 -137 45z m93 -17 c22 -22 13 -28 -38 -28
-48 0 -50 1 -40 20 12 23 59 27 78 8z"/>
<path d="M2436 481 c-27 -29 -12 -59 40 -81 24 -11 44 -26 44 -34 0 -23 -38
-30 -65 -12 -30 20 -35 20 -35 1 0 -32 79 -47 114 -22 12 9 17 23 14 42 -2 24
-11 32 -43 44 -48 18 -59 31 -40 50 11 12 19 12 45 1 36 -15 53 -5 26 16 -28
20 -80 18 -100 -5z"/>
<path d="M3185 475 c-19 -18 -25 -35 -25 -65 0 -55 34 -90 88 -90 52 0 87 36
87 90 0 82 -94 122 -150 65z m113 -37 c11 -23 11 -33 0 -55 -25 -54 -108 -34
-108 25 0 63 82 85 108 30z"/>
<path d="M3600 410 c0 -73 3 -90 15 -90 12 0 15 13 15 58 0 64 13 89 49 94 14
2 26 9 29 16 5 17 -43 15 -61 -3 -13 -13 -16 -13 -21 0 -3 8 -10 15 -16 15 -6
0 -10 -35 -10 -90z"/>
</g>
</svg>
