<?xml version="1.0" encoding="utf-8"?>
<!-- Generator: Adobe Illustrator 27.5.0, SVG Export Plug-In . SVG Version: 6.00 Build 0)  -->
<svg version="1.1" xmlns="http://www.w3.org/2000/svg" xmlns:xlink="http://www.w3.org/1999/xlink" x="0px" y="0px"
	 viewBox="0 0 500 500" style="enable-background:new 0 0 500 500;" xml:space="preserve">
<g id="Background_Complete">
	<g>
		<g>
			<g>
				<rect x="0" y="380.977" style="fill:#EBEBEB;" width="500" height="0.25"/>
				<rect x="239.64" y="394.017" style="fill:#EBEBEB;" width="30.22" height="0.25"/>
				<rect x="345.89" y="387.787" style="fill:#EBEBEB;" width="69.89" height="0.25"/>
				<rect x="52.46" y="389.467" style="fill:#EBEBEB;" width="167.14" height="0.25"/>
				<path style="fill:#EBEBEB;" d="M237,336.377H43.91c-3.15-0.005-5.7-2.56-5.7-5.71V59.237c0.027-3.13,2.57-5.655,5.7-5.66H237
					c3.154,0,5.71,2.556,5.71,5.71l0,0v271.38C242.71,333.821,240.154,336.377,237,336.377z M43.91,53.777
					c-3.012,0.005-5.45,2.448-5.45,5.46v271.43c0,3.012,2.438,5.454,5.45,5.46H237c3.013-0.005,5.454-2.447,5.46-5.46V59.237
					c-0.006-3.013-2.447-5.455-5.46-5.46H43.91z"/>
				<path style="fill:#EBEBEB;" d="M453.31,336.377h-193.1c-3.151-0.005-5.704-2.559-5.71-5.71V59.237
					c0.033-3.132,2.578-5.655,5.71-5.66h193.1c3.126,0.011,5.663,2.534,5.69,5.66v271.43
					C459,333.813,456.456,336.366,453.31,336.377z M260.21,53.777c-3.013,0.005-5.454,2.447-5.46,5.46v271.43
					c0.005,3.013,2.447,5.454,5.46,5.46h193.1c3.013-0.005,5.454-2.447,5.46-5.46V59.237c-0.005-3.013-2.447-5.455-5.46-5.46H260.21
					z"/>
			</g>
			<g>
				<rect x="65.59" y="93.427" style="fill:#E0E0E0;" width="58.863" height="71.603"/>
				<rect x="61.118" y="93.427" style="fill:#F0F0F0;" width="58.864" height="71.603"/>
				<rect x="66.443" y="99.903" style="fill:#F5F5F5;" width="48.215" height="58.65"/>
				<rect x="66.443" y="99.903" style="fill:#E0E0E0;" width="1.999" height="58.65"/>
				<path style="fill:#E0E0E0;" d="M91.5,114.547c-8.611,0-15.581,6.98-15.581,15.581c0,8.611,6.97,15.59,15.581,15.59
					s15.581-6.98,15.581-15.59C107.08,121.526,100.11,114.547,91.5,114.547z M91.5,133.651c-1.942,0-3.524-1.573-3.524-3.524
					c0-1.941,1.582-3.524,3.524-3.524c1.941,0,3.524,1.582,3.524,3.524C95.024,132.079,93.441,133.651,91.5,133.651z"/>
			</g>
			<g>
				<g>
					<g>
						<g>
							<path style="fill:#F0F0F0;" d="M167.571,172.163c1.54-22.224-7.036-50.46-8.75-55.834c-0.161-0.504,0.114-1.04,0.616-1.209
								l0,0c0.514-0.174,1.069,0.103,1.234,0.62c1.749,5.488,10.397,34.008,8.838,56.555c-0.037,0.541-0.516,0.942-1.056,0.897h0
								C167.923,173.148,167.534,172.692,167.571,172.163z"/>
						</g>
						<path style="fill:#F0F0F0;" d="M168.56,172.477c0,0,8.307-24.552,13.02-25.18c4.712-0.628-6.131,28.934-13.87,31.658
							L168.56,172.477z"/>
						<path style="fill:#F0F0F0;" d="M166.735,149.658c0,0,2.773-8.891,5.183-13.58c2.41-4.689,4.835-8.054,6.319-5.687
							c1.484,2.367-1.222,17.217-11.146,23.753L166.735,149.658z"/>
						<path style="fill:#F0F0F0;" d="M165.085,135.559c0,0,5.585-4.367,7.446-8.467c1.86-4.1,2.099-8.791,0.044-8.966
							c-2.055-0.175-7.881,16.391-7.881,16.391L165.085,135.559z"/>
						<path style="fill:#F0F0F0;" d="M159.951,116.557c0,0,1.158-12.938,5.276-11.703c4.118,1.235-4.748,13.417-4.748,13.417
							L159.951,116.557z"/>
						<path style="fill:#F0F0F0;" d="M161.873,123.207c0,0-11.058-9.827-13.324-7.669c-2.267,2.158,1.992,8.382,5.929,9.419
							c3.937,1.037,8.467,1.537,8.467,1.537L161.873,123.207z"/>
						<path style="fill:#F0F0F0;" d="M166.2,141.921c0,0-11.712-17.67-14.426-16.42s-0.1,8.676,2.214,11.907
							c2.315,3.232,12.88,8.362,12.88,8.362L166.2,141.921z"/>
						<path style="fill:#F0F0F0;" d="M168.523,163.493c0,0-4.865-8.383-8.35-12.052c-3.485-3.669-9.735-10.345-11.414-9.621
							s-1.061,9.683,3.446,13.486c4.506,3.803,14.795,9.12,15.892,11.436L168.523,163.493z"/>
					</g>
					<path style="fill:#E0E0E0;" d="M152.424,194.889c0,0-6.372-8.723-3.849-28.421h43.349c0,0,4.37,20.153-4.37,28.421H152.424z"/>
				</g>
				<g>
					<g>
						<rect x="72.504" y="194.889" style="fill:#E0E0E0;" width="139.052" height="4.54"/>
						<rect x="72.504" y="194.889" style="fill:#F0F0F0;" width="124.497" height="4.54"/>
						<rect x="72.504" y="223.175" style="fill:#E0E0E0;" width="139.052" height="4.54"/>
						<rect x="72.504" y="223.175" style="fill:#F0F0F0;" width="124.497" height="4.54"/>
						<rect x="81.103" y="199.43" style="fill:#F5F5F5;" width="3.728" height="23.746"/>
						<rect x="84.831" y="199.43" style="fill:#E0E0E0;" width="10.191" height="23.746"/>
					</g>
					
						<ellipse transform="matrix(0.7071 -0.7071 0.7071 0.7071 -113.3819 153.3006)" style="fill:#E0E0E0;" cx="128.359" cy="213.514" rx="9.984" ry="9.984"/>
					<g>
						<rect x="165.336" y="208.571" style="fill:#E0E0E0;" width="14.678" height="14.678"/>
						<rect x="160.371" y="208.571" style="fill:#F0F0F0;" width="14.678" height="14.678"/>
					</g>
				</g>
			</g>
		</g>
		<g>
			<g>
				<rect x="241.448" y="101.166" style="fill:#E0E0E0;" width="186.371" height="106.669"/>
				<rect x="236.813" y="101.166" style="fill:#F0F0F0;" width="186.371" height="106.669"/>
				<g>
					<rect x="240.859" y="104.769" style="fill:#F5F5F5;" width="178.839" height="99.465"/>
				</g>
				<rect x="240.859" y="104.769" style="fill:#E0E0E0;" width="1.748" height="99.465"/>
				<polygon style="opacity:0.8;fill:#FFFFFF;" points="287.266,204.233 338.865,104.769 361.913,104.968 310.297,204.233 				"/>
				<polygon style="opacity:0.8;fill:#FFFFFF;" points="318.719,204.233 370.318,104.769 393.366,104.968 341.75,204.233 				"/>
			</g>
			<g>
				<rect x="229.708" y="207.835" style="fill:#E0E0E0;" width="201.429" height="17.221"/>
				<rect x="232.442" y="207.835" style="fill:#EBEBEB;" width="191.685" height="17.221"/>
			</g>
			<g>
				<g>
					<rect x="232.442" y="160.82" style="fill:#FAFAFA;" width="198.696" height="4.424"/>
					<rect x="232.442" y="154.501" style="fill:#FAFAFA;" width="198.696" height="4.424"/>
					<rect x="232.442" y="148.182" style="fill:#FAFAFA;" width="198.696" height="4.424"/>
					<rect x="232.442" y="141.863" style="fill:#FAFAFA;" width="198.696" height="4.424"/>
					<rect x="232.442" y="135.544" style="fill:#FAFAFA;" width="198.696" height="4.424"/>
					<rect x="232.442" y="129.225" style="fill:#FAFAFA;" width="198.696" height="4.424"/>
					<rect x="232.442" y="122.906" style="fill:#FAFAFA;" width="198.696" height="4.424"/>
					<rect x="232.442" y="116.587" style="fill:#FAFAFA;" width="198.696" height="4.424"/>
					<rect x="232.442" y="110.268" style="fill:#FAFAFA;" width="198.696" height="4.424"/>
					<rect x="232.442" y="103.948" style="fill:#FAFAFA;" width="198.696" height="4.424"/>
					<rect x="232.442" y="97.629" style="fill:#FAFAFA;" width="198.696" height="4.424"/>
				</g>
				<g>
					<path style="fill:#E0E0E0;" d="M228.656,94.84c0,1.541-1.249,2.79-2.79,2.79c-1.541,0-2.79-1.249-2.79-2.79
						c0-1.541,1.249-2.79,2.79-2.79C227.407,92.05,228.656,93.299,228.656,94.84z"/>
					<path style="fill:#E0E0E0;" d="M442.749,94.84c0,1.541-1.249,2.79-2.79,2.79c-1.541,0-2.79-1.249-2.79-2.79
						c0-1.541,1.249-2.79,2.79-2.79C441.5,92.05,442.749,93.299,442.749,94.84z"/>
					<g>
						<rect x="225.866" y="93.383" style="fill:#E0E0E0;" width="214.093" height="2.912"/>
					</g>
				</g>
			</g>
		</g>
	</g>
</g>
<g id="Background_Simple" style="display:none;">
	<g style="display:inline;">
		<path style="fill:#407BFF;" d="M250.417,156.537c36.387-22.666,63.632-66.233,112.114-64.931
			c36.408,0.967,57.604,30.253,65.554,64.157c20.905,89.038-91.07,167.038-168.783,184.166
			c-80.466,17.74-196.448-8.423-189.656-102.991c2.797-38.979,32.313-61.675,72.766-71.293
			C176.777,157.479,221.909,174.294,250.417,156.537z"/>
		<path style="opacity:0.9;fill:#FFFFFF;enable-background:new    ;" d="M250.417,156.537
			c36.387-22.666,63.632-66.233,112.114-64.931c36.408,0.967,57.604,30.253,65.554,64.157
			c20.905,89.038-91.07,167.038-168.783,184.166c-80.466,17.74-196.448-8.423-189.656-102.991
			c2.797-38.979,32.313-61.675,72.766-71.293C176.777,157.479,221.909,174.294,250.417,156.537z"/>
	</g>
</g>
<g id="Shape">
	<ellipse id="shape" style="fill:#F5F5F5;" cx="250" cy="416.24" rx="193.89" ry="11.32"/>
</g>
<g id="Music">
	<g>
		<g>
			<path style="fill:#407BFF;" d="M343.087,210.991c0.626,2.173-1.283,4.631-4.264,5.489c-2.981,0.858-5.904-0.208-6.53-2.381
				c-0.626-2.173,1.283-4.631,4.264-5.489C339.537,207.752,342.461,208.818,343.087,210.991z"/>
			<line style="fill:none;stroke:#407BFF;stroke-miterlimit:10;" x1="342.666" y1="210.984" x2="332.178" y2="191.145"/>
			<path style="fill:#407BFF;" d="M332.111,191.018c0,0,2.988,5.652,2.991,5.658c-0.037-0.071,0.567-0.589,0.615-0.632
				c1.255-1.118,2.868-1.531,4.515-1.592c1.149-0.043,2.304,0.034,3.448-0.084c2.562-0.263,4.515-1.952,6.075-3.892
				c0.125-0.156,0.248-0.313,0.369-0.472c0.177-0.234,0.353-0.471,0.513-0.717c-1.913,0.378-3.871,0.535-5.818,0.398
				c-1.915-0.135-3.789-0.628-5.719-0.598c-2.363,0.036-4.777,0.542-6.799,1.811C332.237,190.936,332.174,190.977,332.111,191.018z"
				/>
		</g>
		<g>
			<g>
				<path style="fill:#407BFF;" d="M326.246,149.843c-1.017,2.02-4.087,2.527-6.858,1.132c-2.771-1.395-4.192-4.163-3.175-6.183
					c1.017-2.02,4.088-2.527,6.858-1.132C325.841,145.055,327.263,147.823,326.246,149.843z"/>
				<line style="fill:none;stroke:#407BFF;stroke-miterlimit:10;" x1="325.941" y1="149.552" x2="331.721" y2="127.869"/>
			</g>
			<g>
				<path style="fill:#407BFF;" d="M342.083,157.345c-1.017,2.02-4.087,2.527-6.858,1.132c-2.771-1.395-4.192-4.163-3.175-6.183
					c1.017-2.02,4.087-2.527,6.858-1.132C341.679,152.556,343.1,155.325,342.083,157.345z"/>
				<line style="fill:none;stroke:#407BFF;stroke-miterlimit:10;" x1="341.779" y1="157.053" x2="347.559" y2="135.37"/>
			</g>
			<polygon style="fill:#407BFF;" points="345.581,142.288 329.605,135.309 330.308,132.67 346.328,139.487 			"/>
			<polygon style="fill:#407BFF;" points="347.247,138.443 348.473,133.956 331.46,126.525 330.245,131.596 			"/>
		</g>
		<g>
			<g>
				<path style="fill:#407BFF;" d="M393.352,182.833c0.754,1.498,3.032,1.874,5.087,0.84c2.055-1.035,3.11-3.088,2.355-4.587
					c-0.754-1.498-3.032-1.874-5.087-0.839C393.652,179.281,392.598,181.335,393.352,182.833z"/>
				<line style="fill:none;stroke:#407BFF;stroke-miterlimit:10;" x1="393.578" y1="182.617" x2="389.29" y2="166.533"/>
			</g>
			<g>
				<path style="fill:#407BFF;" d="M381.604,188.398c0.754,1.498,3.032,1.874,5.087,0.839c2.055-1.035,3.11-3.088,2.355-4.587
					c-0.754-1.498-3.032-1.874-5.087-0.839C381.904,184.846,380.85,186.899,381.604,188.398z"/>
				<line style="fill:none;stroke:#407BFF;stroke-miterlimit:10;" x1="381.83" y1="188.182" x2="377.542" y2="172.098"/>
			</g>
			<polygon style="fill:#407BFF;" points="379.009,177.229 390.86,172.052 390.339,170.094 378.455,175.152 			"/>
			<polygon style="fill:#407BFF;" points="377.774,174.377 376.864,171.048 389.484,165.536 390.386,169.298 			"/>
		</g>
	</g>
</g>
<g id="Sofa">
	<g>
		<g>
			<g>
				<rect x="105.977" y="356.924" style="fill:#407BFF;" width="243.567" height="59.19"/>
				<rect x="105.977" y="356.924" style="opacity:0.3;" width="243.567" height="59.19"/>
			</g>
			<g>
				<g>
					<path style="fill:#407BFF;" d="M384.631,362.503h-193.88c-10.978,0-19.959-8.982-19.959-19.959v-51.825
						c0-10.978,8.982-19.959,19.959-19.959h193.88c10.978,0,19.959,8.982,19.959,19.959v51.825
						C404.591,353.521,395.609,362.503,384.631,362.503z"/>
					<path style="opacity:0.3;" d="M384.631,362.503h-193.88c-10.978,0-19.959-8.982-19.959-19.959v-51.825
						c0-10.978,8.982-19.959,19.959-19.959h193.88c10.978,0,19.959,8.982,19.959,19.959v51.825
						C404.591,353.521,395.609,362.503,384.631,362.503z"/>
					<path style="fill:#407BFF;" d="M362.731,362.503h-193.88c-10.978,0-19.959-8.982-19.959-19.959v-51.825
						c0-10.978,8.982-19.959,19.959-19.959h193.88c10.978,0,19.959,8.982,19.959,19.959v51.825
						C382.69,353.521,373.709,362.503,362.731,362.503z"/>
					<path style="opacity:0.2;fill:#FFFFFF;" d="M362.731,362.503h-193.88c-10.978,0-19.959-8.982-19.959-19.959v-51.825
						c0-10.978,8.982-19.959,19.959-19.959h193.88c10.978,0,19.959,8.982,19.959,19.959v51.825
						C382.69,353.521,373.709,362.503,362.731,362.503z"/>
				</g>
				<g>
					<path style="fill:#407BFF;" d="M156.389,311.986v91.912c0,3.364-1.378,6.415-3.592,8.629c-2.214,2.206-5.265,3.583-8.629,3.583
						H93.855c-1.107,0-2.181-0.152-3.203-0.431V300.196c1.023-0.279,2.096-0.431,3.203-0.431h50.313
						C150.887,299.765,156.389,305.267,156.389,311.986z"/>
					<path style="opacity:0.3;" d="M156.389,311.986v91.912c0,3.364-1.378,6.415-3.592,8.629c-2.214,2.206-5.265,3.583-8.629,3.583
						H93.855c-1.107,0-2.181-0.152-3.203-0.431V300.196c1.023-0.279,2.096-0.431,3.203-0.431h50.313
						C150.887,299.765,156.389,305.267,156.389,311.986z"/>
					<path style="fill:#407BFF;" d="M106.068,311.986v91.912c0,6.719-5.502,12.213-12.213,12.213c-1.107,0-2.181-0.152-3.203-0.431
						c-5.181-1.411-9.018-6.17-9.018-11.782v-91.912c0-5.612,3.837-10.37,9.018-11.79c1.023-0.279,2.096-0.431,3.203-0.431
						c3.355,0,6.406,1.378,8.621,3.592C104.69,305.571,106.068,308.63,106.068,311.986z"/>
					<path style="opacity:0.3;fill:#FFFFFF;" d="M106.068,311.986v91.912c0,6.719-5.502,12.213-12.213,12.213
						c-1.107,0-2.181-0.152-3.203-0.431c-5.181-1.411-9.018-6.17-9.018-11.782v-91.912c0-5.612,3.837-10.37,9.018-11.79
						c1.023-0.279,2.096-0.431,3.203-0.431c3.355,0,6.406,1.378,8.621,3.592C104.69,305.571,106.068,308.63,106.068,311.986z"/>
				</g>
				<g>
					<path style="fill:#407BFF;" d="M406.149,301.951L406.149,301.951H352.63v116.345h53.519h0c6.719,0,12.216-5.497,12.216-12.216
						v-91.913C418.365,307.448,412.868,301.951,406.149,301.951z"/>
					<path style="opacity:0.3;" d="M406.149,301.951L406.149,301.951H352.63v116.345h53.519h0c6.719,0,12.216-5.497,12.216-12.216
						v-91.913C418.365,307.448,412.868,301.951,406.149,301.951z"/>
					<path style="fill:#407BFF;" d="M352.63,418.297L352.63,418.297c-6.719,0-12.216-5.497-12.216-12.216v-91.913
						c0-6.719,5.497-12.216,12.216-12.216l0,0c6.719,0,12.216,5.497,12.216,12.216v91.913
						C364.846,412.799,359.349,418.297,352.63,418.297z"/>
					<path style="opacity:0.3;fill:#FFFFFF;" d="M352.63,418.297L352.63,418.297c-6.719,0-12.216-5.497-12.216-12.216v-91.913
						c0-6.719,5.497-12.216,12.216-12.216l0,0c6.719,0,12.216,5.497,12.216,12.216v91.913
						C364.846,412.799,359.349,418.297,352.63,418.297z"/>
				</g>
				<rect x="105.977" y="358.708" style="opacity:0.4;" width="234.436" height="17.821"/>
				<g>
					<path style="fill:#407BFF;" d="M340.704,368.85H117.903c-6.559,0-11.925-5.366-11.925-11.925l0,0
						c0-6.559,5.366-11.925,11.925-11.925h222.802c6.559,0,11.925,5.366,11.925,11.925l0,0
						C352.63,363.483,347.263,368.85,340.704,368.85z"/>
					<path style="opacity:0.3;fill:#FFFFFF;" d="M340.704,368.85H117.903c-6.559,0-11.925-5.366-11.925-11.925l0,0
						c0-6.559,5.366-11.925,11.925-11.925h222.802c6.559,0,11.925,5.366,11.925,11.925l0,0
						C352.63,363.483,347.263,368.85,340.704,368.85z"/>
				</g>
			</g>
		</g>
		<g>
			<path style="fill:#F5F5F5;" d="M197.288,334.413l-11.318,5.067l-17.752,7.953c-4.811,2.15-10.518-0.024-12.668-4.836
				l-14.555-32.482c-2.158-4.82,0.024-10.518,4.836-12.676c0,0,0.008-0.008,0.024-0.016l7.121-3.189l21.924-9.815
				c4.811-2.158,10.51,0.016,12.668,4.835c3.357,4.812,6.258,9.919,8.664,15.25c2.414,5.323,4.332,10.87,5.723,16.577l0.168,0.655
				C204.274,326.556,202.1,332.255,197.288,334.413z"/>
			<path style="opacity:0.05;" d="M185.551,339.561l-17.589,7.88c-4.768,2.13-10.422-0.024-12.552-4.791l-14.421-32.185
				c-2.138-4.775,0.024-10.422,4.791-12.56c0,0,0.008-0.008,0.024-0.016c0.293-0.166,3.081-1.782,7.056-3.16
				c8.83-3.065,23.545-4.958,29.753,12.734C187.127,320.325,186.921,331.515,185.551,339.561z"/>
		</g>
	</g>
</g>
<g id="Character">
	<g>
		<path style="fill:#CE7A63;" d="M304.386,286.081c-11.266-7.15-17.278-33.426-17.278-33.426l-10.05,8.77
			c5.85,29.032,27.299,37.984,27.299,37.984c7.241-0.271,16.741-13.785,21.155-20.728c-3.019-1.663-7.464-4.122-8.833-4.935
			C313.318,282.567,304.386,286.081,304.386,286.081z"/>
		<path style="fill:#263238;" d="M267.532,188.453c0,0,13.212,8.961,1.634,20.235c-11.578,11.275-9.561-16.007-9.561-16.007
			L267.532,188.453z"/>
		<g>
			<path style="fill:#CE7A63;" d="M222.976,350.884c0,0,4.797,3.562,5.609,5.276c0.813,1.714,2.199,12.62,3.662,13.045
				c1.463,0.425,3.333-5.218,3.926-12.983c0.449-5.871,3.089-10.086,4.394-14.154c1.305-4.068-1.932-5.592-6.34-4.615
				c-4.408,0.977-9.865-0.057-9.865-0.057L222.976,350.884z"/>
			<g>
				<path style="fill:#407BFF;" d="M223.921,351.052l-10.631,1.719c0,0-34.579-6.302-42.509-16.476c0,0-3.523-10.579,2.488-19.764
					c6.01-9.186,15.398-10.359,29.48-8.096c14.081,2.263,84.4-0.06,84.4-0.06s22.887-1.247,28.755,6.07
					c5.868,7.317,5.531,19.559,0,26.011c-5.531,6.452-42.439,8.444-57.405,10.597v-9.51l-22.117-2.81l-9.817-0.98L223.921,351.052z"
					/>
				<path style="opacity:0.7;" d="M223.921,351.052l-10.631,1.719c0,0-34.579-6.302-42.509-16.476c0,0-3.523-10.579,2.488-19.764
					c6.01-9.186,15.398-10.359,29.48-8.096c14.081,2.263,84.4-0.06,84.4-0.06s22.887-1.247,28.755,6.07
					c5.868,7.317,5.531,19.559,0,26.011c-5.531,6.452-42.439,8.444-57.405,10.597v-9.51l-22.117-2.81l-9.817-0.98L223.921,351.052z"
					/>
			</g>
			<polygon style="fill:#407BFF;" points="212.196,354.678 220.587,334.883 228.763,337.895 224.675,356.829 			"/>
			<path style="fill:#CE7A63;" d="M261.482,348.259c0,0-0.607,0.559-2.977,1.473c-3.462,1.335-9.926,9.008-18.605,17.321
				c-1.238,1.185-3.276,0.392-3.442-1.314c-0.407-4.178,0.61-7.678,3.839-10.653c5.812-5.355,2.251-12.22,5.812-13.457
				c5.71-1.984,13.14-4.61,13.14-4.61L261.482,348.259z"/>
			<polygon style="fill:#407BFF;" points="261.682,333.377 269.858,351.45 258.025,354.462 253.407,334.883 			"/>
		</g>
		<path style="fill:#263238;" d="M233.972,194.351c0,0-2.577-4.612,0.542-7.594c0,0-3.876-0.127-3.876-5.265
			c0-5.138,3.876-7.302,3.876-7.302s-1.623-10.006,6.671-11.268c8.293-1.262,8.48,9.199,14.473,9.199
			c4.614,0,11.069-0.579,14.983,6.283c3.279,5.749,2.404,8.508,2.404,8.508s6.647,2.674,6.647,13.783
			c0,7.82-4.748,15.196-18.273,15.647c-18.834,0.628-3.827-21.99-3.827-21.99H233.972z"/>
		<path style="fill:#407BFF;" d="M239.01,234.543c0,0-19.038,2.351-20.724,3.475c-1.686,1.124-1.405,23.32,2.529,45.236
			c3.934,21.915,3.934,29.221,3.934,29.221l47.035-1.405c0,0,2.415-36.245,4.101-43.55c1.686-7.305,7.586-29.22,6.181-29.782
			C280.661,237.175,261.701,231.631,239.01,234.543z"/>
		<path style="fill:#263238;" d="M257.42,330.242c0,0,5.525-8.059,15.338-10.717c12.377-3.352,19.747-10.653,20.183-20.994
			c0.96-22.798-24.215-46.29-45.268-28.168c-3.805,3.275-8.348,5.767-13.18,7.144c-6.778,1.932-13.932,0.013-20.755,1.835
			c-20.103,5.37-27.261,28.88-18.921,46.623c5.366,11.417,17.126,18.893,29.498,20.303
			C238.796,347.917,248.829,341.105,257.42,330.242z"/>
		<path style="fill:none;stroke:#263238;stroke-miterlimit:10;" d="M229.993,302.356L229.993,302.356
			c0.639-0.354,1.451-0.12,1.805,0.519l5.374,9.709c0.354,0.639,0.12,1.451-0.519,1.805l0,0c-0.639,0.354-1.451,0.12-1.805-0.519
			l-5.374-9.709C229.121,303.522,229.354,302.71,229.993,302.356z"/>
		<path style="fill:#407BFF;" d="M282.066,237.737c0,0,8.464,7.67,12.921,18.719c0,0-11.026,9.017-20.942,9.925
			c-2.882-6.42-0.241-17.941-0.241-17.941L282.066,237.737z"/>
		<path style="fill:#CE7A63;" d="M257.552,218.627c0.253,14.503,5.003,16.041,5.003,16.041s-1.538,10.015-13.734,10.269
			c-12.196,0.262-9.889-10.396-9.889-10.396c5.434-0.6,6.525-4.936,6.491-8.401c-0.017-2.426-0.583-4.437-0.583-4.437
			c-10.142-2.696-10.977-15-10.91-20.107c0.079-6.055,3.434-12.552,5.285-15.739c1.682-2.916,1.771-4.85,1.771-4.85l4.623-3.33
			c0,0,6.803,4.107,12.838,7.184c4.015,2.054,6.668,9.407,7.159,16.32c0.245,3.465-1.155,4.837-1.553,7.505
			C262.923,216.259,257.552,218.627,257.552,218.627z"/>
		<path style="fill:none;stroke:#263238;stroke-linecap:round;stroke-linejoin:round;stroke-miterlimit:10;" d="M243.491,208.525
			c0,0,2.596,0.913,5.943-1.576"/>
		<path style="fill:#BA4D3C;" d="M241.21,204.572l1.027-8.214l-5.134,6.571C237.104,202.929,237.617,205.085,241.21,204.572z"/>
		<path style="fill:none;stroke:#263238;stroke-linecap:round;stroke-linejoin:round;stroke-miterlimit:10;" d="M248.083,191.243
			c0,0,3.264-0.498,5.504,2.903"/>
		<path style="fill:none;stroke:#263238;stroke-linecap:round;stroke-linejoin:round;stroke-miterlimit:10;" d="M238.512,188.505
			c0,0-1.07-0.411-2.816,1.08"/>
		<path style="fill:#263238;" d="M248.984,197.743c0,0.765-0.403,1.385-0.9,1.385c-0.497,0-0.901-0.62-0.901-1.385
			c0-0.765,0.403-1.385,0.901-1.385C248.58,196.358,248.984,196.978,248.984,197.743z"/>
		<path style="fill:#263238;" d="M238.905,196.358c0,0.765-0.403,1.385-0.901,1.385c-0.497,0-0.9-0.62-0.9-1.385
			c0-0.765,0.403-1.385,0.9-1.385C238.501,194.973,238.905,195.593,238.905,196.358z"/>
		<path style="opacity:0.2;" d="M250.942,221.704c0,0-2.147,2.806-5.519,4.437c-0.017-2.426-0.583-4.437-0.583-4.437
			S248.043,222.397,250.942,221.704z"/>
		<path style="fill:#263238;" d="M265.937,201.597c-2.147-0.786-8.115-3.955-8.115-11.207c0,0-7.945-0.972-9.736-5.646
			c0,0-5.527,2.341-10.277,0.769c1.682-2.916,1.862-5.28,1.862-5.28l5.884-3.198c0,0,7.882,3.874,13.916,6.951
			C263.485,186.04,266.236,194.518,265.937,201.597z"/>
		<path style="fill:#CE7A63;" d="M263.294,203.149c0,0,4.636-4.735,7.793-1.085s-5.228,10.95-8.681,8.779
			C258.953,208.673,263.294,203.149,263.294,203.149z"/>
		<g>
			<line style="fill:none;stroke:#263238;stroke-miterlimit:10;" x1="342.024" y1="263.288" x2="329.52" y2="242.587"/>
			<line style="fill:none;stroke:#263238;stroke-miterlimit:10;" x1="348.734" y1="259.405" x2="336.23" y2="238.704"/>
			<line style="fill:none;stroke:#263238;stroke-miterlimit:10;" x1="353.68" y1="255.741" x2="342.602" y2="237.403"/>
			<path style="fill:#263238;" d="M326.351,250.384l1.089-1.934c0.525-0.932,1.347-1.661,2.335-2.071l14.503-6.014
				c2.102-0.872,4.527-0.141,5.798,1.747l2.7,4.013c1.439,2.138,0.924,5.032-1.165,6.543l-13.323,9.636
				c-0.725,0.524-1.583,0.835-2.475,0.896l-1.557,0.107c-1.808,0.124-3.531-0.785-4.449-2.348l-3.413-5.808
				C325.533,253.683,325.516,251.867,326.351,250.384z"/>
			<path style="fill:#263238;" d="M259.471,305.213c0.251-1.963,78.838-47.974,78.838-47.974l-10.486-4.583l-76.988,34.852
				L259.471,305.213z"/>
			<circle style="fill:#263238;" cx="329.52" cy="242.587" r="1.758"/>
			<path style="fill:#263238;" d="M338.535,239.462c0.069,0.968-0.661,1.809-1.629,1.878c-0.969,0.069-1.809-0.661-1.878-1.629
				c-0.069-0.968,0.661-1.809,1.629-1.878C337.626,237.764,338.467,238.493,338.535,239.462z"/>
			<path style="fill:#263238;" d="M344.356,237.288c0.069,0.968-0.661,1.809-1.629,1.878c-0.969,0.069-1.809-0.661-1.878-1.629
				c-0.069-0.968,0.661-1.809,1.629-1.878C343.447,235.589,344.287,236.319,344.356,237.288z"/>
			<path style="fill:#263238;" d="M343.732,262.871c0.23,0.943-0.347,1.894-1.29,2.125c-0.943,0.23-1.895-0.347-2.125-1.29
				c-0.23-0.943,0.347-1.895,1.29-2.125C342.55,261.35,343.501,261.927,343.732,262.871z"/>
			<path style="fill:#263238;" d="M350.04,258.112c0.296,0.924-0.213,1.914-1.137,2.211c-0.924,0.296-1.914-0.213-2.211-1.137
				c-0.296-0.924,0.213-1.914,1.137-2.211C348.754,256.679,349.744,257.188,350.04,258.112z"/>
			<path style="fill:#263238;" d="M355.178,254.619c0.296,0.924-0.213,1.914-1.137,2.211c-0.924,0.296-1.914-0.213-2.211-1.137
				c-0.296-0.924,0.213-1.914,1.137-2.211C353.892,253.185,354.882,253.694,355.178,254.619z"/>
			<path style="opacity:0.5;" d="M352.776,246.125l-2.701-4.013c-1.27-1.888-3.696-2.619-5.798-1.747l-14.503,6.014
				c-0.988,0.41-1.81,1.139-2.335,2.071l-1.089,1.934c-0.552,0.981-0.724,2.105-0.533,3.179l-42.874,19.409
				c-9.078-9.527-22.886-13.269-35.27-2.609c-3.805,3.275-8.348,5.767-13.18,7.144c-6.778,1.932-13.932,0.013-20.755,1.835
				c-20.103,5.37-27.261,28.88-18.921,46.623c5.366,11.417,17.126,18.893,29.498,20.303c14.48,1.649,24.513-5.163,33.104-16.026
				c0,0,5.525-8.059,15.338-10.717c12.377-3.352,19.747-10.653,20.183-20.994c0.187-4.447-0.624-8.919-2.201-13.105
				c14.477-8.698,30.477-18.141,39.742-23.592c0.968,1.011,2.34,1.57,3.774,1.472l1.557-0.107c0.893-0.061,1.75-0.372,2.475-0.896
				l13.323-9.636C353.7,251.157,354.215,248.263,352.776,246.125z"/>
			<circle style="opacity:0.5;" cx="329.52" cy="242.587" r="1.758"/>
			<path style="opacity:0.5;" d="M338.535,239.462c0.069,0.968-0.661,1.809-1.629,1.878c-0.969,0.069-1.809-0.661-1.878-1.629
				c-0.069-0.968,0.661-1.809,1.629-1.878C337.626,237.764,338.467,238.493,338.535,239.462z"/>
			<path style="opacity:0.5;" d="M344.356,237.288c0.069,0.968-0.661,1.809-1.629,1.878c-0.969,0.069-1.809-0.661-1.878-1.629
				c-0.069-0.968,0.661-1.809,1.629-1.878C343.447,235.589,344.287,236.319,344.356,237.288z"/>
			<path style="opacity:0.5;" d="M343.732,262.871c0.23,0.943-0.347,1.894-1.29,2.125c-0.943,0.23-1.895-0.347-2.125-1.29
				c-0.23-0.943,0.347-1.895,1.29-2.125C342.55,261.35,343.501,261.927,343.732,262.871z"/>
			<path style="opacity:0.5;" d="M350.04,258.112c0.296,0.924-0.213,1.914-1.137,2.211c-0.924,0.296-1.914-0.213-2.211-1.137
				c-0.296-0.924,0.213-1.914,1.137-2.211C348.754,256.679,349.744,257.188,350.04,258.112z"/>
			<path style="opacity:0.5;" d="M355.178,254.619c0.296,0.924-0.213,1.914-1.137,2.211c-0.924,0.296-1.914-0.213-2.211-1.137
				c-0.296-0.924,0.213-1.914,1.137-2.211C353.892,253.185,354.882,253.694,355.178,254.619z"/>
			<g>
				
					<ellipse transform="matrix(0.8652 -0.5015 0.5015 0.8652 -113.8348 167.7876)" style="fill:none;stroke:#E0E0E0;stroke-miterlimit:10;" cx="255.119" cy="295.594" rx="10.773" ry="10.773"/>
				
					<line style="fill:none;stroke:#E0E0E0;stroke-width:0.5;stroke-miterlimit:10;" x1="230.112" y1="302.291" x2="328.443" y2="253.769"/>
				
					<line style="fill:none;stroke:#E0E0E0;stroke-width:0.5;stroke-miterlimit:10;" x1="233.324" y1="303.892" x2="329.52" y2="255.155"/>
				
					<line style="fill:none;stroke:#E0E0E0;stroke-width:0.5;stroke-miterlimit:10;" x1="235.303" y1="306.369" x2="330.431" y2="257.011"/>
				
					<line style="fill:none;stroke:#E0E0E0;stroke-width:0.5;stroke-miterlimit:10;" x1="237.773" y1="307.807" x2="331.278" y2="258.328"/>
				
					<line style="fill:none;stroke:#E0E0E0;stroke-width:0.5;stroke-miterlimit:10;" x1="242.184" y1="308.433" x2="332.111" y2="259.962"/>
			</g>
			<path style="fill:#FFFFFF;" d="M332.684,260.858L332.684,260.858c-0.478,0.242-1.066,0.048-1.307-0.429l-3.51-6.942
				c-0.242-0.478-0.048-1.066,0.429-1.307l0,0c0.478-0.242,1.066-0.048,1.308,0.429l3.51,6.942
				C333.355,260.028,333.162,260.616,332.684,260.858z"/>
		</g>
		<polygon style="opacity:0.2;" points="276.23,266.059 272.496,257.5 275.7,267.22 		"/>
		<path style="fill:#CE7A63;" d="M327.973,274.641l4.563-17.63l-10.196-3.03l-7.15,11.551l2.167,6.076
			c-0.186,0.746-0.417,1.456-0.677,2.138c1.369,0.812,5.814,3.272,8.833,4.935c0.515-0.81,0.965-1.536,1.33-2.136
			C327.561,275.364,327.973,274.641,327.973,274.641z"/>
		<g>
			<path style="fill:#CE7A63;" d="M204.551,251.658c0,0-17.666,20.851-22.488,29.443c0,0,21.87,20.998,38.107,24.93l12.925,8.626
				l10.77,1.872l4.467-7.545c0,0-6.015-9.089-16.093-6.958c0,0-25.615-12.218-31.75-21.606c0,0,9.082-13.955,15.953-19.973
				L204.551,251.658z"/>
			<path style="fill:#407BFF;" d="M224.489,263.911l-5.68,5.73l-2.468,2.485c-0.025-0.017-0.051-0.025-0.076-0.042
				c-8.485-4.547-18.196-16.058-18.196-16.058c7.421-9.043,20.216-18.01,20.216-18.01L224.489,263.911z"/>
			<path style="opacity:0.2;" d="M218.809,269.642l-2.468,2.485c-0.025-0.017-0.051-0.025-0.076-0.042l1.766-10.066L218.809,269.642
				z"/>
		</g>
	</g>
</g>
</svg>
